<svg xmlns="http://www.w3.org/2000/svg" width="280" height="176.158" viewBox="0 0 228 176.158">
  <g id="Group_132" data-name="Group 132" transform="translate(498 -1692.977)">
    <text id="text2430" transform="translate(-498 1832.496)" fill="#1d84b5" font-size="58" font-family="SegoeUI-Light, Segoe UI" font-weight="300"><tspan x="0" y="0">Elite Care</tspan></text>
    <text id="text2434" transform="translate(-447.847 1865.135)" fill="#50c878" font-size="15" font-family="SegoeUI-Light, Segoe UI" font-weight="300"><tspan x="0" y="0">MEDICAL SERVICES</tspan></text>
    <g id="Group_131" data-name="Group 131" transform="translate(-447.483 1692.977)">
      <g id="g2444" transform="translate(0 0.014)">
        <path id="path2446" d="M-135.852-74.283a44.361,44.361,0,0,0-5.485-21.529A40.558,40.558,0,0,0-156.3-111.13a41.254,41.254,0,0,0-20.391-5.563,35.808,35.808,0,0,0-18.656,5.388c-.577.368-1.144.751-1.7,1.153A36.767,36.767,0,0,0-208.63-96.075a51.4,51.4,0,0,0-4.783,22.755,1.062,1.062,0,0,0,1.066,1.061h42.574v-5.311h-36.847a41.04,41.04,0,0,1,3.833-16.03,30.529,30.529,0,0,1,10.8-12.575,28.774,28.774,0,0,1,15.351-4.5q.465-.015.945-.015a32.052,32.052,0,0,1,17.086,4.6A33.052,33.052,0,0,1-146.736-93.6a36.208,36.208,0,0,1,4.288,16.03l.029,5.388a38.591,38.591,0,0,1-4.5,17.629A33.112,33.112,0,0,1-159.4-41.531a33.473,33.473,0,0,1-11.693,4.187c-.281.044-.562.092-.848.131-.649.087-1.3.165-1.967.223-.354.029-.707.058-1.066.078-.819.048-1.648.073-2.491.073-.354,0-.707,0-1.056-.015-.315-.01-.63-.019-.94-.039-.291-.015-.586-.034-.872-.053A36.9,36.9,0,0,1-193.313-40.2a36.029,36.029,0,0,1-4.623-2.539,34.651,34.651,0,0,1-5.883-4.831A2.975,2.975,0,0,0-208-47.651a2.972,2.972,0,0,0-.126,4.172,37.637,37.637,0,0,0,12.163,8.674,43.855,43.855,0,0,0,17.338,3.794c.388.01.775.015,1.168.015.252,0,.5,0,.751,0q.749-.015,1.483-.044t1.468-.087c.407-.029.814-.068,1.221-.107a39.8,39.8,0,0,0,16.5-5.335,40.438,40.438,0,0,0,14.789-15.143,40.651,40.651,0,0,0,2.835-6.193q.145-.407.276-.814a45.789,45.789,0,0,0,2.282-14.358c0-.141,0-.276,0-.417,0-.262,0-.523,0-.785" transform="translate(213.413 116.693)" fill="#1d84b5"/>
      </g>
      <g id="g2448" transform="translate(38.731 0)">
        <path id="path2450" d="M-108.752-128.93A35.808,35.808,0,0,1-114-125.947a35.819,35.819,0,0,1-15.23,3.276,33.955,33.955,0,0,1-17.975-4.782,33.939,33.939,0,0,1-12.4-13.1,39.085,39.085,0,0,1-4.516-18.948,38.975,38.975,0,0,1,4.6-19.037,34.237,34.237,0,0,1,12.573-13.193,34.086,34.086,0,0,1,17.886-4.781,33.729,33.729,0,0,1,14.432,3.1q.576.269,1.141.561c1.647.851,4.722-4.545,4.722-4.545a39.124,39.124,0,0,0-20.119-5.136,41.59,41.59,0,0,0-21.516,5.578,40.53,40.53,0,0,0-14.964,15.318,44.654,44.654,0,0,0-5.49,22.314,43.491,43.491,0,0,0,5.4,21.781,40.421,40.421,0,0,0,14.787,15.141,41.127,41.127,0,0,0,21.428,5.578,43.221,43.221,0,0,0,17.62-3.63c.982-.432,1.926-.907,2.853-1.4Z" transform="translate(170.841 202.538)" fill="#50c878"/>
      </g>
      <g id="g2452" transform="translate(96.703 64.879)">
        <path id="path2454" d="M-18.248-27.16a5.087,5.087,0,0,1-5.088-5.088,5.087,5.087,0,0,1,5.088-5.088,5.087,5.087,0,0,1,5.088,5.088,5.087,5.087,0,0,1-5.088,5.088m0-15.506A10.418,10.418,0,0,0-28.667-32.248,10.418,10.418,0,0,0-18.248-21.83,10.418,10.418,0,0,0-7.83-32.248,10.418,10.418,0,0,0-18.248-42.667" transform="translate(28.667 42.667)" fill="#1d84b5"/>
      </g>
      <g id="g2456" transform="translate(91.523 1.897)">
        <path id="path2458" d="M-66.46-25.312l-9.627-9.628a16.7,16.7,0,0,0-21.689-1.537,14.879,14.879,0,0,0-3.35,3.354,16.7,16.7,0,0,0,1.548,21.675l9.627,9.627a2.986,2.986,0,0,0,2.119.877,2.986,2.986,0,0,0,2.119-.877L-80.9-6.633a3,3,0,0,0,0-4.237,2.975,2.975,0,0,0-2.119-.878,2.975,2.975,0,0,0-2.118.878l-2.7,2.7-7.509-7.509a10.633,10.633,0,0,1,0-15.018,10.632,10.632,0,0,1,15.018,0l7.509,7.509-2.7,2.7a3,3,0,0,0,0,4.237,3,3,0,0,0,4.237,0l4.814-4.814a3,3,0,0,0,0-4.237" transform="translate(104.403 39.762)" fill="#1d84b5"/>
      </g>
    </g>
  </g>
</svg>
